<?xml version="1.0" encoding="UTF-8" standalone="no"?>
<!-- Created with Inkscape (http://www.inkscape.org/) -->

<svg
   xmlns:dc="http://purl.org/dc/elements/1.1/"
   xmlns:cc="http://creativecommons.org/ns#"
   xmlns:rdf="http://www.w3.org/1999/02/22-rdf-syntax-ns#"
   xmlns:svg="http://www.w3.org/2000/svg"
   xmlns="http://www.w3.org/2000/svg"
   xmlns:sodipodi="http://sodipodi.sourceforge.net/DTD/sodipodi-0.dtd"
   xmlns:inkscape="http://www.inkscape.org/namespaces/inkscape"
   version="1.1"
   id="svg27167"
   xml:space="preserve"
   width="666.66669"
   height="666.66669"
   viewBox="0 0 666.66669 666.66669"
   sodipodi:docname="Ukraine-paint-flag-publicdomainvectors.org.svg"
   inkscape:version="0.92.4 (5da689c313, 2019-01-14)"><metadata
     id="metadata27173"><rdf:RDF><cc:Work
         rdf:about=""><dc:format>image/svg+xml</dc:format><dc:type
           rdf:resource="http://purl.org/dc/dcmitype/StillImage" /><dc:title></dc:title></cc:Work></rdf:RDF></metadata><defs
     id="defs27171"><clipPath
       clipPathUnits="userSpaceOnUse"
       id="clipPath27183"><path
         d="M 0,500 H 500 V 0 H 0 Z"
         id="path27181"
         inkscape:connector-curvature="0" /></clipPath></defs><sodipodi:namedview
     pagecolor="#ffffff"
     bordercolor="#666666"
     borderopacity="1"
     objecttolerance="10"
     gridtolerance="10"
     guidetolerance="10"
     inkscape:pageopacity="0"
     inkscape:pageshadow="2"
     inkscape:window-width="724"
     inkscape:window-height="480"
     id="namedview27169"
     showgrid="false"
     inkscape:zoom="0.35399999"
     inkscape:cx="333.33334"
     inkscape:cy="333.33334"
     inkscape:window-x="0"
     inkscape:window-y="0"
     inkscape:window-maximized="0"
     inkscape:current-layer="g27175" /><g
     id="g27175"
     inkscape:groupmode="layer"
     inkscape:label="Ukraine-paint-flag-publicdomainvectors.org"
     transform="matrix(1.3333333,0,0,-1.3333333,0,666.66667)"><g
       id="g27177"><g
         id="g27179"
         clip-path="url(#clipPath27183)"><path
           d="m 41.577,280.183 c 0.179,-3.122 0.484,-6.556 0.798,-10.065 h 2.615 c -0.17,4.155 0.416,9.473 -3.413,10.065"
           style="fill:#005bbb;fill-opacity:1;fill-rule:nonzero;stroke:none"
           id="path27185"
           inkscape:connector-curvature="0" /><path
           d="m 463.147,356.162 c -3.793,-0.414 -7.548,-0.716 -10.634,0 z m 7.692,-35.676 c 1.644,0.459 7.124,1.533 5.245,2.624 -1.028,-0.129 -1.983,-1.553 -2.623,0 -0.195,3.159 8.478,1.981 6.134,4.379 -3.726,-0.196 -12.004,-1.785 -18.398,0 3.467,0.021 3.843,2.495 2.633,3.508 0.37,-1.451 -3.271,0.077 -3.507,0.875 1.305,0.159 3.229,-0.314 3.507,0.874 -2.756,-0.415 -3.58,1.091 -4.382,2.63 1.43,-0.64 3.806,1.738 1.749,1.743 0.381,-1.445 -3.267,0.083 -3.509,0.885 2.284,0.376 6.739,-0.118 9.641,1.749 5.357,1.611 -5.35,-0.164 -5.257,1.749 2.837,-0.498 4.078,0.602 6.132,0.881 5.906,-0.289 1.955,1.557 -1.75,0.879 -3.951,-1.332 -13.611,-1.553 -17.517,0 5.345,1.635 13.885,0.767 17.517,1.744 -7.373,1.451 4.147,0.711 3.499,3.509 -2.094,2.711 -4.64,-0.88 -7.007,-0.875 -3,0.006 -5.669,2.042 -8.757,2.624 4.815,0.154 10.197,-0.268 12.265,2.633 -0.175,2.743 -5.113,0.731 -6.131,2.625 4.98,0.57 12.244,-1.153 15.761,0.885 -1.866,0.484 -4.055,0.526 -6.386,0.388 0.084,0.062 0.178,0.115 0.255,0.185 h -2.624 c 2.335,2.258 -2.016,0.92 -0.875,4.378 1.737,-0.01 1.112,-2.388 3.499,-1.75 0.39,3.309 -4.567,1.261 -5.249,3.503 3.448,-0.24 6.082,0.335 7.007,2.624 -3.034,0.474 -8.313,-1.301 -8.765,1.756 6.626,0.385 11.487,2.53 15.774,5.252 -2.327,-1.039 -4.867,0.165 -7.881,0 -9.102,-0.484 -21.223,-2.985 -24.531,3.503 1.677,0.725 8.704,0.566 7.007,1.759 -5.371,1.251 -10.47,-2.351 -14.019,0 3.586,-1.059 6.4,1.852 9.641,2.63 1.826,0.431 3.317,-0.325 5.252,0 1.288,0.21 3.124,1.481 4.373,1.749 2.048,0.427 5.984,-1.682 6.142,1.754 -7.171,-2.459 -14.225,0.514 -21.03,0.874 -2.686,0.139 -5.792,-1.223 -8.756,-0.874 -1.713,0.196 -3.762,0.787 -5.257,1.754 -1.74,2.017 0.22,0.963 0.874,2.624 -3.952,-0.17 -10.522,-2.3 -14.015,0 4.543,1.43 9.065,-1.059 13.141,1.749 -2.768,1.867 -8.243,-2.943 -4.385,1.755 -2.943,0.545 -8.134,-1.127 -9.635,0.879 1.46,0.099 7.938,-0.483 5.257,0.87 -3.833,0.545 -7.005,1.754 -10.515,2.634 3.477,0.606 9.707,-1.528 10.515,1.744 -5.098,0.159 -9.681,-1.636 -14.018,0 2.653,1.158 7.511,0.092 9.64,1.759 -1.554,0.196 -4.388,-0.89 -3.504,1.745 2.927,-0.212 5.521,-1.878 7.008,0.879 -2.979,2.131 -6.174,-1.08 -8.761,1.75 2.788,1.306 8.171,0.009 10.51,1.754 -2.752,-1.004 -2.126,1.383 -3.502,1.754 -1.454,-1.534 -3.757,0.612 -6.133,0.875 -1.072,0.118 -1.237,-0.957 -2.625,-0.875 -4.353,0.257 -8.325,1.606 -10.517,1.749 0.66,1.981 4.909,0.345 7.009,0.875 1.23,-0.067 3.354,0.195 1.755,0.88 -1.456,-0.005 -2.924,0 -4.379,0 -0.884,0.689 -2.193,0.545 -3.509,2.633 4.08,0.948 7.233,-1.528 8.762,0 0.143,0.129 -7.111,1.755 -7.877,0.876 -1.126,0.045 -1.215,1.116 -2.634,0.874 -2.285,-2.145 -1.935,0.179 -2.625,0.875 -1.855,1.851 -9.063,-1.925 -8.765,1.753 5.212,0.042 11.225,-0.719 13.139,2.629 1.79,-0.797 5.752,-1.759 7.008,0.875 -2.893,-1.239 -2.183,1.786 -3.499,1.75 0.319,0.01 -1.133,-3.349 -3.509,-1.75 0.731,2.809 0.75,1.811 -0.876,3.504 9.272,0.201 19.583,-0.478 25.406,0.87 -6.667,3.035 -13.624,1.229 -21.021,0.879 -24.467,-1.137 -51.216,0.494 -73.589,1.754 7.012,0.576 16.339,-1.162 21.899,0.881 -1.531,0.797 -4.367,0.292 -5.252,1.743 5.499,2.974 16.438,0.5 22.77,2.628 -2.979,1.195 -6.461,0.011 -7.881,0 -1.801,-0.009 -4.62,0.608 -6.128,0.876 -14.481,2.593 -28.567,2.629 -44.68,2.629 -6.967,0 -14.601,0.694 -21.021,0 -2.531,-0.273 -5.31,-1.544 -7.893,-1.75 -6.085,-0.493 -12.398,0.664 -18.396,0 -3.669,-0.411 -6.761,-2.217 -10.501,-2.624 -8.051,-0.88 -16.571,0.185 -24.54,-0.884 -1.867,-0.242 -3.38,-1.42 -5.253,-1.75 -3.523,-0.612 -7.871,0.166 -9.642,0 -2.869,-0.256 -6.008,-1.518 -8.755,-1.749 -4.898,-0.417 -10.104,0.454 -14.889,0 -4.023,-0.385 -8.746,-2.084 -13.151,-2.633 -10.967,-1.359 -22.028,-5.022 -30.65,-4.374 -0.155,-4.862 -7.337,0.782 -7.013,-0.875 0.54,-0.05 1.045,-0.139 0.879,-0.879 -0.231,-1.235 -1.923,-0.999 -2.628,-1.75 -4.121,-0.509 -6.184,-0.941 -8.762,-1.753 -2.777,-0.875 -6.369,-2.835 -7.887,-3.504 -2.33,-1.029 -5.293,-1.667 -7.875,-2.634 -5.258,-1.961 -10.474,-4.707 -14.899,-6.132 -2.269,-0.726 -6.082,-3.71 -7.883,0 0.541,2.674 4.713,1.717 5.258,4.383 -2.653,-0.212 -6.389,-4.836 -7.892,-0.875 0.608,1.733 5.227,-0.545 4.384,2.624 -3.446,0.998 -6.086,-2.639 -7.008,0.88 0.279,2.058 2.713,1.96 3.51,3.509 -4.64,-1.039 -3.962,-2.167 -6.144,0.874 -2.171,3.035 -3.94,8.19 -7.006,6.132 1.933,-0.751 3.575,-6.297 1.76,-7.882 -1.801,3.751 -3.16,7.929 -7.008,9.632 -0.267,-1.72 1.178,-1.739 1.749,-2.625 0.711,-1.111 1.157,-3.194 1.75,-4.382 1.564,-3.133 6.276,-8.577 4.383,-11.39 -0.392,4.413 -2.881,5.601 -4.383,7.886 -1.94,2.943 -2.331,6.77 -5.253,8.761 2.238,-5.581 3.668,-8.581 6.127,-14.019 -0.149,0.34 0.546,1.019 0.875,0 0.093,-0.272 1.77,-3.365 1.76,-4.384 -0.012,-0.607 -1.025,-1.383 -0.886,-1.753 0.886,-2.264 5.856,-3.463 2.634,-6.128 -1.975,0.365 0.135,4.801 -2.634,4.383 -0.77,-2.614 2.737,-5.34 0.886,-6.137 -1.781,2.902 -2.244,7.105 -5.259,8.761 -1.203,-1.995 2.26,-3.298 0,-3.504 -2.016,3.71 -3.323,8.309 -5.252,12.266 -0.757,1.543 -1.209,3.421 -1.754,4.383 -2.871,5.022 0.761,-5.226 -0.879,-6.138 1.259,-1.934 2.133,1.101 2.633,-0.874 -0.262,-2.362 3.658,-5.006 0.874,-7.012 0.053,1.892 -1.034,7.042 -2.628,4.383 2.798,-0.659 -0.916,-6.477 0.874,-6.128 0,0.485 0.706,0.994 0.88,0 -0.149,-2.608 2.027,-5.87 0.874,-9.641 -1.1,3.71 -2.649,9.183 -5.258,8.761 -0.596,2.327 -1.383,4.466 -2.628,6.134 -3.016,-2.527 2.808,-6.597 0,-8.757 0.504,3.019 -2.892,5.226 -4.378,7.877 -0.895,1.61 -1.014,3.94 -1.754,5.257 -0.556,0.998 -2.162,1.827 -2.63,2.635 0.416,-0.727 0.973,3.214 -0.875,0.874 2.506,-1.018 -1.414,-1.018 -1.748,0 -0.788,-2.907 4.862,-3.802 2.623,-5.258 0.063,2.156 -2.042,1.343 -3.503,2.624 -2.501,2.207 -4.466,7.172 -7.007,6.138 2.973,-3.447 6.791,-6.056 7.887,-11.39 -1.837,0.246 -1.992,2.803 -2.635,3.503 -1.61,1.779 -1.455,1.028 -3.503,1.749 -0.083,-3.874 4.785,-2.804 4.383,-7.008 0.262,-2.016 -2.531,-0.966 -2.629,-2.623 1.117,-1.281 3.951,-5.309 2.629,-6.132 -2.413,1.671 -5.227,2.957 -6.132,6.132 -4.918,0.154 3.046,-2.954 0,-3.509 -0.011,0.885 -1.538,1.106 -1.755,0 2.64,-2.629 7.96,-7.202 6.138,-11.38 -0.577,2.933 -3.354,3.653 -4.383,6.128 0.575,-5.86 5.088,-12.409 3.503,-17.523 -1.152,3.437 -1.744,9.394 -4.382,8.766 0.241,1.117 0.879,1.21 0.879,2.629 0,5.011 -1.194,-2.011 -0.879,-1.754 -0.659,-0.551 -4.246,3.529 -4.379,2.624 0.113,-3.134 4.909,-6.138 1.748,-9.636 0.176,2.51 0.115,4.774 -2.622,4.383 -1.075,-2.119 2.077,-1.831 1.748,-3.504 -0.056,-0.302 -2.119,-0.911 -1.748,-1.759 0.23,-0.515 3.209,-0.247 2.622,-1.749 -1.816,-0.489 -1.851,-1.369 -0.874,-2.629 -1.065,0.278 -3.015,-2.532 -0.874,-2.628 0.196,0.683 0.02,1.733 0.874,1.754 0.504,-2.835 -0.262,-4.41 -1.748,-5.259 1.067,-2.687 1.864,-6.233 2.453,-9.573 h 1.043 c -0.019,-1.564 -1.054,-4.405 -0.874,-5.898 0.31,-2.418 1.884,-4.64 1.755,-7.002 -0.052,-1.06 -1.837,-0.91 -1.755,-1.76 0.012,-0.066 1.617,0.072 1.755,0 1.908,-0.854 -0.859,-2.027 -0.874,-1.749 0.108,-1.765 1.558,-3.725 1.75,-6.127 0.097,-1.193 -1.046,-3.004 -0.876,-4.378 0.032,-0.237 1.611,-1.045 1.755,-1.759 -0.011,0.046 -1.148,-1.4 -0.879,-2.625 1.394,-6.26 2.278,-14.749 1.753,-22.78 -1.656,0.103 -0.612,2.898 -2.629,2.628 -0.014,-3.934 3.247,-6.352 0,-8.761 2.917,0.608 1.406,-1.805 0.876,-2.623 5.262,-0.4 1.999,-2.15 1.753,-5.258 3.344,-1.903 2.747,0.807 4.378,2.635 0.602,-5.655 -0.571,-10.126 2.635,-10.522 -2.828,-1.978 -1.41,-6.166 -0.517,-10.065 H 446.83 c 0.154,0.439 0.281,0.876 0.354,1.304 -3.468,-1.152 -1.33,9.112 -0.876,9.646 0.495,0.576 2.886,-0.505 2.629,0.87 -1.507,-0.052 -2.248,0.678 -2.629,1.749 3.327,3.673 -0.197,14.214 6.131,14.898 -0.966,4.764 1.848,5.738 3.499,7.878 -1.506,0.349 -2.243,-1.297 -2.623,0 5.285,2.387 11.646,-1.307 15.763,2.628 -5.73,0.474 -9.97,-0.534 -14.889,-0.874 -1.496,1.754 -1.275,7.105 0.875,7.892 7.353,-0.154 11.857,2.18 17.523,2.623 5.12,0.396 9.692,-0.756 11.391,1.754 -6.453,0.68 -8.603,-2.155 -13.139,0"
           style="fill:#005bbb;fill-opacity:1;fill-rule:nonzero;stroke:none"
           id="path27187"
           inkscape:connector-curvature="0" /><path
           d="m 19.753,209.205 c -0.025,0.006 -0.051,0.011 -0.077,0.018 -1.048,-0.574 -0.628,-0.378 0.077,-0.018"
           style="fill:#ffd500;fill-opacity:1;fill-rule:nonzero;stroke:none"
           id="path27189"
           inkscape:connector-curvature="0" /><path
           d="m 24.966,203.712 h -5.979 c -0.366,-0.241 -0.718,-0.46 -1.055,-0.617 2.084,-0.394 4.158,-0.224 7.034,0.617"
           style="fill:#ffd500;fill-opacity:1;fill-rule:nonzero;stroke:none"
           id="path27191"
           inkscape:connector-curvature="0" /><path
           d="m 462.072,202.216 c 0.005,0.617 -0.103,1.102 -0.272,1.496 h -2.533 c 0.86,-0.572 1.774,-1.095 2.805,-1.496"
           style="fill:#ffd500;fill-opacity:1;fill-rule:nonzero;stroke:none"
           id="path27193"
           inkscape:connector-curvature="0" /><path
           d="m 47.715,267.054 c 0.046,-0.813 -0.875,-1.626 -0.88,-1.76 -0.052,-2.104 2.541,-5.304 0,-6.132 -0.891,3.59 -1.539,7.577 -1.755,9.637 -0.043,0.42 -0.071,0.862 -0.09,1.319 h -2.615 c 0.714,-7.974 1.482,-16.341 0.956,-22.347 0.047,1.642 -0.674,1.858 -1.754,0.881 0.051,1.12 1.122,1.208 0.88,2.627 -2.393,0.078 -1.77,-1.466 -3.508,0 1.671,-4.105 0.416,-7.989 0.879,-12.268 0.329,-3.092 2.283,-7.126 1.749,-9.631 -1.657,-7.759 -9.96,-6.848 -15.764,-11.391 -0.658,-2.7 2.403,-1.683 1.75,-4.383 -1.432,-0.206 -3.791,-1.993 -5.591,-3.166 -0.187,-0.121 -0.368,-0.237 -0.542,-0.342 -0.304,-0.18 -1.089,-0.595 -1.677,-0.893 2.866,-0.693 5.379,2.242 3.426,-0.856 1.507,0.834 3.045,1.476 4.267,2.091 0.36,0.183 0.697,0.362 0.991,0.541 -0.463,-0.287 -0.627,0.413 0,0.881 1.318,0.972 3.808,1.971 4.384,0.868 -0.047,0.088 -2.737,-1.332 -2.629,-1.749 1.536,-0.789 2.774,2.227 3.395,0.394 -2.873,-0.317 -3.783,-2.597 -6.024,-3.553 3.591,-0.912 7.167,2.701 9.636,0 -1.785,0.75 -5.437,-0.757 -2.629,-1.745 0.009,1.143 2.428,1.111 2.629,0 -2.392,0.633 -1.764,-1.745 -3.503,-1.759 -1.713,2.134 -8.5,0.865 -8.618,-1.305 -0.775,-0.42 -1.434,-0.946 -1.899,-1.667 1.649,-0.588 2.325,-0.646 2.646,-0.497 -0.003,-0.011 -0.008,-0.02 -0.012,-0.03 1.598,0.071 2.501,0.329 3.036,0.659 0.148,-0.039 0.303,-0.082 0.467,-0.132 0.34,1.219 0.694,1.706 1.082,1.941 0.623,-0.124 2.218,-0.182 3.298,0.155 -3.603,-3.704 3.498,-1.641 4.377,-3.503 -1.27,-0.471 -4.522,1.029 -4.377,-0.878 3.343,-1.513 5.761,1.497 6.132,-2.625 -2.85,-0.072 -5.392,-0.447 -7.007,-1.748 3.261,-1.473 5.505,1.358 8.756,1.748 -0.072,-0.004 2.228,-0.972 3.503,-0.874 5.53,0.406 9.164,0.967 14.02,-1.749 -3.936,-1.966 -7.769,3.261 -9.637,-1.754 3.509,1.141 5.762,-1.513 7.888,-1.755 1.81,-0.197 3.868,1.735 5.256,0 -7.14,-3.246 -10.587,3.184 -18.396,0 -2.434,1.311 1.518,3.581 -0.88,4.384 -1.348,-1.837 -5.201,-0.32 -1.754,-2.629 -2.716,-0.099 -2.501,2.751 -6.133,1.754 -1.039,-3.673 3.695,-1.57 4.384,-3.509 -3.535,0.921 -1.096,-1.908 -2.629,-2.624 -2.48,-1.173 -5.484,1.394 -9.636,-0.879 5.006,-0.413 5.123,-0.279 8.755,-1.749 -0.426,2.886 5.058,3.667 5.259,0.874 -1.029,-0.133 -2.48,0.148 -2.628,-0.874 1.66,-1.657 5.107,3.081 7.011,-0.875 -1.657,-0.196 -1.935,0.981 -3.503,0.875 -0.725,-3.197 3.565,-1.863 4.378,-2.636 0.545,-0.503 -1.616,-1.717 0,-1.748 4.172,4.06 5.294,-2.418 9.635,0 -0.411,-3.628 4.101,-2.325 6.137,-3.508 0.094,1.069 0.253,2.076 1.751,1.753 1.914,-0.195 4.712,-3.956 6.132,-1.753 -1.509,-0.043 -2.254,0.678 -2.629,1.753 5.947,1.219 9.441,0.252 13.145,-2.618 -2.953,-0.562 -8.139,1.116 -9.642,-0.876 6.102,-1.742 11.607,1.679 15.763,-2.633 -1.553,-0.201 -4.382,0.88 -3.497,-1.755 17.131,-3.302 32.775,-8.107 51.683,-9.635 0.123,-1.164 -3.561,-2.639 -0.875,-3.498 0.515,4.593 16.901,2.392 17.523,1.743 0.535,-0.554 -1.616,-1.691 0,-1.743 0.422,1.034 0.927,1.98 1.753,2.618 3.68,-0.849 8.639,0 11.387,0 0.925,0 2.289,-0.962 2.623,-0.875 0.279,0.079 0.576,3.185 2.634,1.755 -0.329,-2.846 -3.076,-1.78 -4.384,-2.625 -0.719,-0.467 0.279,-1.455 -0.873,-1.753 0.329,0.083 -0.453,1.95 -1.749,1.753 -1.143,-0.179 -0.825,-1.419 -1.755,-1.753 -0.252,1.799 -2.34,1.744 -3.504,2.623 -0.35,-1.506 1.297,-2.247 0,-2.623 -5.885,0.273 -9.368,0.839 -14.893,0.88 -1.529,0.004 -2.831,-1.066 -4.384,-0.88 -1.148,0.133 -1.188,0.925 -2.624,0.88 -1.584,-0.062 -2.016,-1.05 -3.509,-0.88 -0.194,0.022 -2.263,1.661 -2.622,1.753 -4.749,1.149 -9.483,0.125 -14.02,0.87 -1.359,0.227 -2.285,1.436 -3.498,1.755 -1.375,0.359 -3.005,-0.283 -4.383,0 -1.524,0.308 -2.81,2.161 -4.384,2.629 -1.07,0.319 -2.407,-0.243 -3.499,0 -0.333,0.077 -2.17,1.61 -2.633,1.748 -3.196,0.932 -5.001,0.237 -7.883,0.88 -0.991,0.217 -1.954,1.667 -2.634,1.749 -1.594,0.212 -1.975,-0.822 -3.497,-0.874 -0.984,-0.035 -1.359,1.236 -1.761,0 4.127,-1.034 1.657,-2.542 0,-4.378 6.082,0.767 7.492,-3.576 12.266,-1.754 -1.698,-2.927 0.319,-0.474 2.635,-0.88 1.152,-0.196 1.779,-1.508 2.633,-1.745 1.317,-0.375 3.087,0.464 4.373,0 0.238,-0.092 0.586,-1.573 0.875,-1.753 2.891,-1.754 6.492,0.072 8.766,0 1.703,-0.067 4.62,-1.359 7.001,-1.754 6.729,-1.086 12.045,-1.343 17.519,-2.624 -4.898,0.776 -3.263,-0.89 -4.378,-2.629 -3.392,1.306 -12.415,1.563 -15.759,0 8.289,-0.813 22.895,-1.009 32.411,-5.263 -3.667,-0.175 -13.232,0.776 -7.011,-1.755 -2.84,-0.493 -4.41,0.268 -5.263,1.755 0.081,-0.278 -1.961,-2.727 -3.499,-1.755 -0.556,0.361 1.636,1.795 0,1.755 -0.459,-0.011 -1.03,-1.796 -2.628,-1.755 -3.139,0.098 -6.077,3.503 -9.637,1.755 1.034,-0.129 2.49,0.154 2.63,-0.869 -13.213,0.982 -27.345,4.116 -38.549,4.377 1.306,0.144 3.24,-0.314 3.507,0.881 -7.5,-0.49 -13.159,5.513 -19.271,3.503 4.841,-1.584 10.248,-2.603 14.889,-4.384 -1.554,-0.2 -4.383,0.885 -3.51,-1.76 2.317,-1.358 14.318,-3.451 14.025,-0.869 -1.79,-0.75 -4.836,1.379 -2.634,1.749 3.385,-2.412 7.419,-1.717 11.391,-2.628 0.257,-0.057 1.337,-1.667 1.758,-1.755 1.545,-0.303 3.54,0.489 5.249,0 1.193,-0.329 2.531,-2.232 3.508,-2.618 2.882,-1.163 5.156,-0.345 7.882,-0.874 2.129,1.177 0.545,1.743 1.755,2.618 2.206,0.329 3.879,-1.41 6.131,-1.744 3.237,-0.494 7.491,0.9 12.266,0.869 6.004,-0.03 13.525,-1.245 19.267,0 0.477,0.108 -0.15,1.667 0.885,1.749 4.497,0.397 12.047,-1.26 18.386,-0.874 6.72,0.427 10.016,1.142 13.14,-2.618 -13.149,-2.701 -28.827,-2.65 -42.917,-3.506 -4.23,-0.261 -7.954,-1.958 -11.39,-0.877 0.674,0.195 1.728,0.02 1.75,0.877 -3.762,-2.262 -7.153,0.105 -9.638,-2.638 14.792,-0.4 31.645,1.354 49.055,2.638 3.345,0.243 8.926,0.522 13.14,0.871 9.584,0.803 23.413,5.031 31.541,2.635 -0.673,0.194 -1.83,-0.864 -1.748,-0.886 1.816,-0.354 3.112,1.626 4.378,0 -2.238,-0.39 -4.034,-1.229 -5.258,-2.62 3.117,-0.745 5.247,2.538 6.132,-0.877 -4.229,-0.157 -5.977,-2.784 -8.761,-4.379 4.151,0.448 3.499,1.101 1.754,-1.76 2.49,0.155 3.652,1.605 6.133,1.76 0.005,-0.881 -0.712,-1.05 -0.88,-1.76 2.947,-0.092 5.407,2.547 7.007,1.76 0.267,-0.135 -0.916,-1.76 -0.869,-1.76 2.407,-0.119 2.974,0.597 6.132,0.879 -0.052,-1.122 -1.123,-1.212 -0.879,-2.622 3.117,-1.365 0.54,2.973 2.629,2.622 1.814,-0.524 5.755,1.081 6.137,-0.879 -2.486,0.731 -2.28,-1.235 -4.384,-0.875 -1.086,-2.829 2.835,-0.668 1.754,-3.503 -1.429,0.643 -3.817,-1.739 -1.754,-1.748 0.118,1.44 6.015,1.44 6.127,0 -2.417,1.151 -2.999,-3.469 -1.743,-0.875 2.557,-0.238 2.685,1.979 5.252,1.75 -0.266,-1.061 2.532,-3.021 2.629,-0.875 -4.655,1.46 5.181,1.743 7.876,1.748 -1.475,-3.05 -0.317,-3.06 1.761,-4.383 -1.472,-1.208 -5.815,-4.044 -4.383,-5.253 2.664,3.617 11.21,4.522 11.389,7.888 4.661,0.595 6.206,4.31 12.265,3.502 -0.129,-1.039 -1.564,-1.985 0,-2.627 2.475,3.127 6.725,4.464 8.755,6.13 2.46,2.007 4.699,3.824 7.008,5.26 2.16,1.33 3,2.32 4.384,3.497 0.967,0.839 2.556,0.906 3.504,1.76 2.237,1.985 4.758,5.566 6.137,7.001 1.214,1.271 2.674,1.709 3.498,2.635 1.039,1.152 1.554,3.051 2.628,4.379 1.114,1.362 2.475,2.154 3.505,3.508 2.962,3.869 5.813,7.933 7.886,11.385 1.956,3.246 3.781,5.855 4.384,9.63 5.302,1.996 9.425,5.176 15.768,6.139 2.191,-8.357 -1.183,-16.851 -1.755,-25.411 -0.077,-1.106 0.963,-1.204 0.874,-2.623 -0.313,-5.196 -1.928,-11.751 -0.874,-16.643 0.278,-1.302 1.564,-2.043 1.755,-3.509 0.34,-2.648 -0.987,-6.229 0.875,-8.762 -0.154,2.423 1.348,3.016 2.623,1.754 -0.73,-1.018 -1.151,-2.35 -0.87,-4.376 4.759,1.342 1.683,-4.008 1.75,-4.378 -0.016,0.041 1.585,-1.472 1.755,-1.755 2.788,-4.817 -1.626,-10.613 -0.885,-16.649 5.356,-0.678 3.148,6.205 4.382,9.636 0.885,0.963 3.767,4.301 1.75,5.263 0.272,-1.065 -2.526,-3.026 -2.624,-0.878 0.423,3.656 2.87,5.307 5.257,7.007 -1.77,0.713 0.551,4.619 0.875,6.13 -3.29,0.669 -0.601,-4.649 -4.382,-3.503 0.111,1.457 -2.836,5.572 0.874,5.259 -0.118,-1.04 -1.556,-1.987 0,-2.635 3.745,2.311 4.136,5.9 4.383,7.887 2.712,-2.418 3.375,-7.433 2.624,-9.63 -0.03,-0.109 -1.739,0.081 -1.75,0 -0.122,-2.1 1.071,-4.141 0.876,-6.132 -0.119,-1.246 -1.461,-1.842 -1.75,-3.505 -0.236,-1.425 0.186,-2.957 0,-4.383 3.436,1.203 2.581,5.479 4.383,7.888 0.556,0.734 1.82,0.781 2.463,1.527 -0.66,-0.651 -0.193,3.559 1.046,2.851 0.545,-1.5 2.645,-1.452 3.499,-2.629 -0.524,-1.312 -4.406,-3.659 -2.624,-4.378 1.307,1.028 2.469,2.196 3.498,3.503 1.004,-2.751 -1.373,-2.135 -1.749,-3.503 2.665,-2.748 3.782,5.051 7.008,1.743 0.256,5.588 2.787,8.899 7.892,9.64 0.956,2.542 1.078,5.922 4.372,6.137 -0.144,-2.258 -3.715,-5.55 -1.749,-7.016 1.472,3.108 3.137,6.117 4.383,8.756 0.453,0.984 1.564,1.637 1.749,2.64 0.03,0.18 -1.404,0.643 -0.875,1.744 0.18,0.387 1.39,1.197 1.75,1.76 1.761,2.715 2.541,5.689 5.253,7.007 1.178,-6.456 -2.939,-12.224 -1.754,-15.768 2.592,2.659 1.695,8.821 4.383,11.378 2.63,-7.084 -2.788,-15.017 -1.75,-20.141 1.997,3.549 1.368,7.398 2.625,11.38 0.637,2.022 2.705,4.002 3.503,6.144 0.972,2.592 0.165,3.698 0.879,5.258 1.041,2.242 3.078,5.23 3.504,7.002 0.324,1.379 -0.345,3.014 0,4.377 0.087,0.349 1.64,2.145 1.749,2.634 0.571,2.51 0.089,5.362 0.879,7.881 0.084,0.246 1.648,0.52 1.75,0.875 0.976,3.591 0.278,5.17 0.874,7.887 1.39,6.21 4.624,11.539 5.259,17.522 2.488,0.737 5.315,1.658 6.132,0.875 0.72,-0.683 0.803,-0.261 1.753,-0.875 0.778,-0.499 2.194,-2.38 2.629,-2.627 1.503,-0.865 3.643,-0.783 5.259,-1.756 1.385,-0.833 2.463,-3.024 3.503,-3.503 2.33,-1.066 5.515,-0.849 7.877,-1.749 4.25,-1.616 6.781,-4.661 10.516,-3.503 -2.481,1.311 -4.05,3.539 -7.881,3.503 -3.046,3.22 -5.96,6.646 -9.636,9.635 -0.798,0.639 -3.216,0.829 -4.379,1.746 -1.287,1.017 -2.49,2.714 -2.634,4.381 3.271,-0.559 4.3,-3.868 7.888,-1.749 1.032,-1.65 4.542,-5.32 6.126,-3.503 -1.462,1.421 -4.033,2.645 -6.126,4.378 -1.993,1.647 -5.047,3.458 -4.378,5.254 2.838,-2.434 7.469,-7.682 10.504,-7.003 -3.158,0.956 -1.554,2.639 -2.624,3.499 0.53,-0.422 -2.005,-0.823 -1.749,0.879 4.919,-0.149 -3.045,2.963 0,3.504 1.029,-0.129 1.985,-1.558 2.623,0 -0.92,0.699 -2.418,0.823 -3.123,1.739 h 1.79 c 0.292,-0.438 0.607,-0.857 1.333,-0.859 0.09,0.308 0.13,0.59 0.146,0.859 h 1.503 c -0.531,0.511 -1.084,0.84 -1.636,1.098 -0.045,0.14 -0.094,0.28 -0.162,0.407 h -0.81 c -0.961,0.376 -1.86,0.723 -2.54,1.661 0.299,1.703 -0.142,8.206 -3.502,6.133 1.436,0.637 3.807,-1.74 1.75,-1.75 -2.636,1.112 -3.015,3.515 -1.75,5.258 1.307,-1.903 4.382,-2.042 4.378,-5.258 4.861,1.059 5.32,-2.274 7.882,-3.504 -0.783,4.179 -5.044,4.883 -7.008,7.881 1.163,2.148 3.261,-0.96 3.499,0.881 -3.865,3.138 -7.892,6.116 -11.38,9.631 4.804,1.303 3.838,-3.164 7.007,-3.498 2.335,-0.105 -2.418,3.431 -0.876,3.498 1.114,0.052 3.006,-6.21 6.123,-3.498 -4.229,2.474 -6.091,7.332 -9.625,10.505 1.024,1.008 3.096,0.999 5.252,0.88 -0.787,-2.64 2.064,-1.467 3.499,-2.634 2.279,-1.827 4.033,-6.397 6.142,-5.253 -3.58,3.195 -7.577,7.917 -11.391,9.631 -0.869,0.401 -3.013,2.993 -3.502,3.514 -1.02,1.065 -1.2,2.866 -2.629,3.503 3.122,0.448 5.33,-4.533 7.007,-2.629 -0.751,1.08 -5.643,2.423 -3.504,3.504 1.908,-1.049 5.094,-5.367 7.002,-3.504 -1.698,-0.103 -2.597,1.874 -3.498,2.629 -1.122,0.931 -3.669,1.451 -3.504,3.503 2.958,1.401 3.734,-3.719 5.253,-0.879 -3.118,1.27 -5.211,3.55 -7.005,6.136 2.035,0.289 3.773,0.896 4.38,2.625 -3.641,0.16 -4.818,-1.517 -7.011,0.88 -0.638,1.754 1.683,1.697 1.756,2.629 -0.022,-0.232 -1.673,0.483 -1.756,0.874 -0.268,1.288 0.787,3.07 1.402,4.824 H 47.198 c 0.243,-1.059 0.448,-2.097 0.517,-3.064"
           style="fill:#ffd500;fill-opacity:1;fill-rule:nonzero;stroke:none"
           id="path27195"
           inkscape:connector-curvature="0" /></g></g></g></svg>